<svg width="48" height="48" viewBox="0 0 48 48" fill="none" xmlns="http://www.w3.org/2000/svg">
<g clip-path="url(#clip0_1_1073)">
<path d="M33.9617 17.8074C33.2242 18.1316 32.4367 18.3524 31.6075 18.4532C32.4525 17.9441 33.1025 17.1416 33.41 16.1841C32.6175 16.6466 31.7392 16.9832 30.8042 17.1707C30.0575 16.3716 28.9933 15.8716 27.8117 15.8716C25.5475 15.8716 23.7117 17.7074 23.7117 19.9691C23.7117 20.2941 23.7492 20.6066 23.8175 20.9057C20.4092 20.7449 17.3883 19.1082 15.3667 16.6341C15.0108 17.2357 14.8117 17.9349 14.8117 18.6966C14.8117 20.1216 15.5367 21.3741 16.635 22.1099C15.9625 22.0882 15.33 21.9032 14.7783 21.5966V21.6474C14.7783 23.6349 16.1892 25.2924 18.0667 25.6699C17.7225 25.7624 17.3592 25.8124 16.9867 25.8124C16.725 25.8124 16.4742 25.7874 16.2233 25.7408C16.7492 27.3683 18.2608 28.5549 20.06 28.5883C18.66 29.6874 16.8858 30.3424 14.975 30.3424C14.65 30.3424 14.3258 30.3233 14 30.2866C15.8242 31.4483 17.9733 32.1274 20.2975 32.1274C27.8425 32.1274 31.9633 25.8808 31.9633 20.4724C31.9633 20.2982 31.9633 20.1224 31.9508 19.9474C32.7517 19.3732 33.4508 18.6474 34.0008 17.8241L33.9617 17.8074Z" fill="white"/>
</g>
<defs>
<clipPath id="clip0_1_1073">
<rect width="20" height="20" fill="white" transform="translate(14 14)"/>
</clipPath>
</defs>
</svg>
